<svg width="16" height="20" viewBox="0 0 16 20" fill="none" xmlns="http://www.w3.org/2000/svg">
<path d="M15.44 6.70968V6.75183L15.4661 6.82938C15.4817 6.8757 15.493 6.92332 15.5 6.97165V6.97182V6.97203V6.97224V6.97245V6.97266V6.97287V6.97307V6.97328V6.97348V6.97369V6.97389V6.97409V6.97429V6.97449V6.97469V6.97488V6.97508V6.97528V6.97547V6.97566V6.97586V6.97605V6.97624V6.97643V6.97661V6.9768V6.97699V6.97717V6.97736V6.97754V6.97772V6.9779V6.97808V6.97826V6.97844V6.97862V6.97879V6.97897V6.97914V6.97932V6.97949V6.97966V6.97983V6.98V6.98017V6.98034V6.9805V6.98067V6.98083V6.981V6.98116V6.98132V6.98148V6.98164V6.9818V6.98196V6.98212V6.98227V6.98243V6.98258V6.98274V6.98289V6.98304V6.98319V6.98334V6.98349V6.98364V6.98379V6.98393V6.98408V6.98422V6.98437V6.98451V6.98465V6.9848V6.98494V6.98507V6.98521V6.98535V6.98549V6.98562V6.98576V6.98589V6.98603V6.98616V6.98629V6.98642V6.98655V6.98668V6.98681V6.98694V6.98706V6.98719V6.98732V6.98744V6.98756V6.98769V6.98781V6.98793V6.98805V6.98817V6.98829V6.98841V6.98852V6.98864V6.98876V6.98887V6.98898V6.9891V6.98921V6.98932V6.98943V6.98954V6.98965V6.98976V6.98987V6.98997V6.99008V6.99019V6.99029V6.9904V6.9905V6.9906V6.9907V6.9908V6.9909V6.991V6.9911V6.9912V6.9913V6.99139V6.99149V6.99159V6.99168V6.99177V6.99187V6.99196V6.99205V6.99214V6.99223V6.99232V6.99241V6.9925V6.99259V6.99267V6.99276V6.99285V6.99293V6.99301V6.9931V6.99318V6.99326V6.99334V6.99343V6.99351V6.99359V6.99366V6.99374V6.99382V6.9939V6.99397V6.99405V6.99412V6.9942V6.99427V6.99435V6.99442V6.99449V6.99456V6.99463V6.9947V6.99477V6.99484V6.99491V6.99498V6.99504V6.99511V6.99517V6.99524V6.9953V6.99537V6.99543V6.99549V6.99556V6.99562V6.99568V6.99574V6.9958V6.99586V6.99592V6.99598V6.99603V6.99609V6.99615V6.9962V6.99626V6.99632V6.99637V6.99642V6.99648V6.99653V6.99658V6.99663V6.99669V6.99674V6.99679V6.99684V6.99688V6.99693V6.99698V6.99703V6.99708V6.99712V6.99717V6.99722V6.99726V6.9973V6.99735V6.99739V6.99744V6.99748V6.99752V6.99756V6.9976V6.99764V6.99769V6.99773V6.99776V6.9978V6.99784V6.99788V6.99792V6.99795V6.99799V6.99803V6.99806V6.9981V6.99813V6.99817V6.9982V6.99824V6.99827V6.9983V6.99834V6.99837V6.9984V6.99843V6.99846V6.99849V6.99852V6.99855V6.99858V6.99861V6.99864V6.99866V6.99869V6.99872V6.99875V6.99877V6.9988V6.99883V6.99885V6.99888V6.9989V6.99892V6.99895V6.99897V6.99899V6.99902V6.99904V6.99906V6.99908V6.99911V6.99913V6.99915V6.99917V6.99919V6.99921V6.99923V6.99925V6.99927V6.99928V6.9993V6.99932V6.99934V6.99935V6.99937V6.99939V6.9994V6.99942V6.99944V6.99945V6.99947V6.99948V6.9995V6.99951V6.99953V6.99954V6.99955V6.99957V6.99958V6.99959V6.9996V6.99962V6.99963V6.99964V6.99965V6.99966V6.99967V6.99968V6.9997V6.99971V6.99972V6.99973V6.99973V6.99974V6.99975V6.99976V6.99977V6.99978V6.99979V6.9998V6.9998V6.99981V6.99982V6.99983V6.99983V6.99985V6.99986V6.99987V6.99988V6.99989V6.9999V6.99991V6.99992V6.99993V6.99994V6.99994V6.99995V6.99996V6.99997V6.99998V6.99999V6.99999V7V17C15.5 17.663 15.2366 18.2989 14.7678 18.7678C14.2989 19.2366 13.663 19.5 13 19.5H3C2.33696 19.5 1.70107 19.2366 1.23223 18.7678C0.763392 18.2989 0.5 17.663 0.5 17V3C0.5 2.33696 0.763392 1.70107 1.23223 1.23223C1.70107 0.763392 2.33696 0.5 3 0.5H9.01287C9.05443 0.507866 9.09446 0.522631 9.13126 0.543735L9.28026 0.629186L9.35283 0.618878C9.37017 0.631539 9.38681 0.645187 9.40266 0.659763L15.3902 6.64734C15.4083 6.66696 15.4249 6.6878 15.44 6.70968ZM10.3536 3.05645L9.5 2.20289V3.41V5C9.5 5.39782 9.65804 5.77936 9.93934 6.06066C10.2206 6.34196 10.6022 6.5 11 6.5H12.59H13.7971L12.9436 5.64645L10.3536 3.05645ZM8.5 2V1.5H8H3C2.60217 1.5 2.22064 1.65804 1.93934 1.93934C1.65804 2.22064 1.5 2.60217 1.5 3V17C1.5 17.3978 1.65804 17.7794 1.93934 18.0607C2.22065 18.342 2.60218 18.5 3 18.5H13C13.3978 18.5 13.7794 18.342 14.0607 18.0607C14.342 17.7794 14.5 17.3978 14.5 17V8V7.5H14H11C10.337 7.5 9.70107 7.23661 9.23223 6.76777C8.76339 6.29893 8.5 5.66304 8.5 5V2ZM6 7.5H5C4.86739 7.5 4.74022 7.44732 4.64645 7.35355C4.55268 7.25978 4.5 7.13261 4.5 7C4.5 6.86739 4.55268 6.74022 4.64645 6.64645C4.74022 6.55268 4.86739 6.5 5 6.5H6C6.13261 6.5 6.25978 6.55268 6.35355 6.64645C6.44732 6.74022 6.5 6.86739 6.5 7C6.5 7.13261 6.44732 7.25978 6.35355 7.35355C6.25978 7.44732 6.13261 7.5 6 7.5ZM4.64645 10.6464C4.74022 10.5527 4.86739 10.5 5 10.5H11C11.1326 10.5 11.2598 10.5527 11.3536 10.6464C11.4473 10.7402 11.5 10.8674 11.5 11C11.5 11.1326 11.4473 11.2598 11.3536 11.3536C11.2598 11.4473 11.1326 11.5 11 11.5H5C4.86739 11.5 4.74022 11.4473 4.64645 11.3536C4.55268 11.2598 4.5 11.1326 4.5 11C4.5 10.8674 4.55268 10.7402 4.64645 10.6464ZM4.64645 14.6464C4.74021 14.5527 4.86739 14.5 5 14.5H11C11.1326 14.5 11.2598 14.5527 11.3536 14.6464C11.4473 14.7402 11.5 14.8674 11.5 15C11.5 15.1326 11.4473 15.2598 11.3536 15.3536C11.2598 15.4473 11.1326 15.5 11 15.5H5C4.86739 15.5 4.74021 15.4473 4.64645 15.3536C4.55268 15.2598 4.5 15.1326 4.5 15C4.5 14.8674 4.55268 14.7402 4.64645 14.6464Z" fill="currentColor" stroke="currentColor"/>
</svg>
