<svg width="113" height="78" viewBox="0 0 113 78" fill="none" xmlns="http://www.w3.org/2000/svg">
<path d="M82.8679 29.6438H30.1321C24.6037 29.6438 20.1221 34.111 20.1221 39.6217C20.1221 45.1323 24.6037 49.5996 30.1321 49.5996H82.8679C88.3963 49.5996 92.8779 45.1323 92.8779 39.6217C92.8779 34.111 88.3963 29.6438 82.8679 29.6438Z" fill="#E8E8E8"/>
<path d="M87.0184 39.4552C87.0184 54.5396 73.4216 66.7888 56.622 66.7888C39.8225 66.7888 26.2257 54.5396 26.2257 39.4552C26.2257 24.3707 39.8225 12.1217 56.622 12.1217C73.4216 12.1217 87.0184 24.3707 87.0184 39.4552Z" fill="#E8E8E8" stroke="#D1D1D1"/>
<path d="M56.8662 18.4071H56.3779V24.7345H56.8662V18.4071Z" fill="#2A1655"/>
<path d="M60.7726 28.0199C60.7726 30.3783 58.908 32.2787 56.6221 32.2787C54.3361 32.2787 52.4716 30.3783 52.4716 28.0199C52.4716 25.6615 54.3361 23.761 56.6221 23.761C58.908 23.761 60.7726 25.6615 60.7726 28.0199Z" fill="#22889B" stroke="#1E2457"/>
<path d="M56.6221 20.8407C57.4311 20.8407 58.087 20.187 58.087 19.3805C58.087 18.5741 57.4311 17.9203 56.6221 17.9203C55.8131 17.9203 55.1572 18.5741 55.1572 19.3805C55.1572 20.187 55.8131 20.8407 56.6221 20.8407Z" fill="#22889B" stroke="#1E2457"/>
<path d="M64 27H49C44.0294 27 40 30.9449 40 35.8112V46.1888C40 51.0551 44.0294 55 49 55H64C68.9706 55 73 51.0551 73 46.1888V35.8112C73 30.9449 68.9706 27 64 27Z" fill="#22889B" stroke="#1E2457"/>
<path d="M50 41C51.6569 41 53 39.6569 53 38C53 36.3431 51.6569 35 50 35C48.3431 35 47 36.3431 47 38C47 39.6569 48.3431 41 50 41Z" stroke="white" stroke-width="2"/>
<path d="M64 41C65.6569 41 67 39.6569 67 38C67 36.3431 65.6569 35 64 35C62.3431 35 61 36.3431 61 38C61 39.6569 62.3431 41 64 41Z" stroke="white" stroke-width="2"/>
<path d="M61 46H52C52 47.0588 53.8 49 56.5 49C59.2 49 61 47.2353 61 46Z" fill="white"/>
<ellipse cx="99" cy="40" rx="4" ry="6" fill="#E8E8E8"/>
<ellipse cx="99" cy="40" rx="4" ry="6" fill="#E8E8E8"/>
<ellipse cx="4" cy="6" rx="4" ry="6" transform="matrix(-1 0 0 1 18 34)" fill="#E8E8E8"/>
<ellipse cx="107" cy="40" rx="2" ry="4" fill="#E8E8E8"/>
<ellipse cx="107" cy="40" rx="2" ry="4" fill="#E8E8E8"/>
<ellipse cx="2" cy="4" rx="2" ry="4" transform="matrix(-1 0 0 1 8 36)" fill="#E8E8E8"/>
<ellipse cx="112" cy="40" rx="1" ry="2" fill="#E8E8E8"/>
<ellipse cx="112" cy="40" rx="1" ry="2" fill="#E8E8E8"/>
<ellipse cx="1" cy="2" rx="1" ry="2" transform="matrix(-1 0 0 1 2 38)" fill="#E8E8E8"/>
</svg>
