<svg width="20" height="20" viewBox="0 0 20 20" fill="none" xmlns="http://www.w3.org/2000/svg">
<path fill-rule="evenodd" clip-rule="evenodd" d="M10.0001 1.04166C7.35376 1.04166 5.20846 3.18696 5.20846 5.83332C5.20846 8.47969 7.35376 10.625 10.0001 10.625C12.6465 10.625 14.7918 8.47969 14.7918 5.83332C14.7918 3.18696 12.6465 1.04166 10.0001 1.04166ZM6.45846 5.83332C6.45846 3.87731 8.04412 2.29166 10.0001 2.29166C11.9561 2.29166 13.5418 3.87731 13.5418 5.83332C13.5418 7.78933 11.9561 9.37499 10.0001 9.37499C8.04412 9.37499 6.45846 7.78933 6.45846 5.83332Z" fill="#9E9E9E"/>
<path d="M10.0001 11.875C5.83107 11.875 2.2168 14.6493 2.2168 18.3333C2.2168 18.6785 2.49662 18.9583 2.8418 18.9583C3.18697 18.9583 3.4668 18.6785 3.4668 18.3333C3.4668 15.5674 6.26919 13.125 10.0001 13.125C13.7311 13.125 16.5335 15.5674 16.5335 18.3333C16.5335 18.6785 16.8133 18.9583 17.1585 18.9583C17.5036 18.9583 17.7835 18.6785 17.7835 18.3333C17.7835 14.6493 14.1692 11.875 10.0001 11.875Z" fill="#9E9E9E"/>
<path fill-rule="evenodd" clip-rule="evenodd" d="M10.0001 1.04166C7.35376 1.04166 5.20846 3.18696 5.20846 5.83332C5.20846 8.47969 7.35376 10.625 10.0001 10.625C12.6465 10.625 14.7918 8.47969 14.7918 5.83332C14.7918 3.18696 12.6465 1.04166 10.0001 1.04166ZM6.45846 5.83332C6.45846 3.87731 8.04412 2.29166 10.0001 2.29166C11.9561 2.29166 13.5418 3.87731 13.5418 5.83332C13.5418 7.78933 11.9561 9.37499 10.0001 9.37499C8.04412 9.37499 6.45846 7.78933 6.45846 5.83332Z" stroke="#9E9E9E" stroke-width="0.5" stroke-linecap="round" stroke-linejoin="round"/>
<path d="M10.0001 11.875C5.83107 11.875 2.2168 14.6493 2.2168 18.3333C2.2168 18.6785 2.49662 18.9583 2.8418 18.9583C3.18697 18.9583 3.4668 18.6785 3.4668 18.3333C3.4668 15.5674 6.26919 13.125 10.0001 13.125C13.7311 13.125 16.5335 15.5674 16.5335 18.3333C16.5335 18.6785 16.8133 18.9583 17.1585 18.9583C17.5036 18.9583 17.7835 18.6785 17.7835 18.3333C17.7835 14.6493 14.1692 11.875 10.0001 11.875Z" stroke="#9E9E9E" stroke-width="0.5" stroke-linecap="round" stroke-linejoin="round"/>
</svg>
