<svg width="20" height="20" viewBox="0 0 20 20" fill="none" xmlns="http://www.w3.org/2000/svg">
  <path d="M12.2456 11.4165C12.2456 10.9562 12.6187 10.5831 13.0789 10.5831H13.0864C13.5466 10.5831 13.9197 10.9562 13.9197 11.4165C13.9197 11.8767 13.5466 12.2498 13.0864 12.2498H13.0789C12.6187 12.2498 12.2456 11.8767 12.2456 11.4165Z" fill="#292D32"/>
  <path d="M13.0789 13.0831C12.6187 13.0831 12.2456 13.4562 12.2456 13.9165C12.2456 14.3767 12.6187 14.7498 13.0789 14.7498H13.0864C13.5466 14.7498 13.9197 14.3767 13.9197 13.9165C13.9197 13.4562 13.5466 13.0831 13.0864 13.0831H13.0789Z" fill="#292D32"/>
  <path d="M9.1629 11.4165C9.1629 10.9562 9.536 10.5831 9.99624 10.5831H10.0037C10.464 10.5831 10.8371 10.9562 10.8371 11.4165C10.8371 11.8767 10.464 12.2498 10.0037 12.2498H9.99624C9.536 12.2498 9.1629 11.8767 9.1629 11.4165Z" fill="#292D32"/>
  <path d="M9.99624 13.0831C9.536 13.0831 9.1629 13.4562 9.1629 13.9165C9.1629 14.3767 9.536 14.7498 9.99624 14.7498H10.0037C10.464 14.7498 10.8371 14.3767 10.8371 13.9165C10.8371 13.4562 10.464 13.0831 10.0037 13.0831H9.99624Z" fill="#292D32"/>
  <path d="M6.07859 11.4165C6.07859 10.9562 6.45169 10.5831 6.91193 10.5831H6.91941C7.37965 10.5831 7.75275 10.9562 7.75275 11.4165C7.75275 11.8767 7.37965 12.2498 6.91941 12.2498H6.91193C6.45169 12.2498 6.07859 11.8767 6.07859 11.4165Z" fill="#292D32"/>
  <path d="M6.91193 13.0831C6.45169 13.0831 6.07859 13.4562 6.07859 13.9165C6.07859 14.3767 6.45169 14.7498 6.91193 14.7498H6.91941C7.37965 14.7498 7.75275 14.3767 7.75275 13.9165C7.75275 13.4562 7.37965 13.0831 6.91941 13.0831H6.91193Z" fill="#292D32"/>
  <path fill-rule="evenodd" clip-rule="evenodd" d="M7.29167 1.6665C7.29167 1.32133 7.01184 1.0415 6.66667 1.0415C6.32149 1.0415 6.04167 1.32133 6.04167 1.6665V2.31672C4.76174 2.42324 3.74683 2.86679 3.03159 3.63706C2.21136 4.52038 1.875 5.73736 1.875 7.08317V14.1665C1.875 15.5123 2.21136 16.7293 3.03159 17.6126C3.8596 18.5043 5.08921 18.9582 6.66667 18.9582H13.3333C14.9108 18.9582 16.1404 18.5043 16.9684 17.6126C17.7886 16.7293 18.125 15.5123 18.125 14.1665V7.08317C18.125 5.73736 17.7886 4.52038 16.9684 3.63706C16.2532 2.86679 15.2383 2.42324 13.9583 2.31672V1.6665C13.9583 1.32133 13.6785 1.0415 13.3333 1.0415C12.9882 1.0415 12.7083 1.32133 12.7083 1.6665V2.2915H7.29167V1.6665ZM6.04167 3.57174V4.1665C6.04167 4.51168 6.32149 4.7915 6.66667 4.7915C7.01184 4.7915 7.29167 4.51168 7.29167 4.1665V3.5415H12.7083V4.1665C12.7083 4.51168 12.9882 4.7915 13.3333 4.7915C13.6785 4.7915 13.9583 4.51168 13.9583 4.1665V3.57174C14.9458 3.67207 15.6132 4.01465 16.0524 4.48762C16.5656 5.04029 16.8522 5.86208 16.8737 6.94991H3.12631C3.1478 5.86208 3.43439 5.04029 3.94758 4.48762C4.38677 4.01465 5.05418 3.67207 6.04167 3.57174ZM3.125 8.19991V14.1665C3.125 15.3207 3.41364 16.187 3.94758 16.7621C4.47373 17.3287 5.32746 17.7082 6.66667 17.7082H13.3333C14.6725 17.7082 15.5263 17.3287 16.0524 16.7621C16.5864 16.187 16.875 15.3207 16.875 14.1665V8.19991H3.125Z" fill="#292D32"/>
</svg>
