<svg width="24" height="24" viewBox="0 0 24 24" fill="none" xmlns="http://www.w3.org/2000/svg">
<path d="M12.5714 2.28571H12V5.90136H12.5714V2.28571Z" fill="#2A1655"/>
<path d="M14.7272 6.91401C14.7272 8.26172 13.6617 9.34766 12.3555 9.34766C11.0492 9.34766 9.98376 8.26172 9.98376 6.91401C9.98376 5.56636 11.0492 4.48041 12.3555 4.48041C13.6617 4.48041 14.7272 5.56636 14.7272 6.91401Z" fill="#22889B" stroke="#1E2457"/>
<path d="M12.2857 2.85714C12.7591 2.85714 13.1429 2.47338 13.1429 2C13.1429 1.52661 12.7591 1.14285 12.2857 1.14285C11.8124 1.14285 11.4286 1.52661 11.4286 2C11.4286 2.47338 11.8124 2.85714 12.2857 2.85714Z" fill="#22889B" stroke="#1E2457"/>
<path d="M16.5715 6.33127H8.00004C5.15971 6.33127 2.85718 8.5855 2.85718 11.3662V17.2963C2.85718 20.077 5.15971 22.3313 8.00004 22.3313H16.5715C19.4118 22.3313 21.7143 20.077 21.7143 17.2963V11.3662C21.7143 8.5855 19.4118 6.33127 16.5715 6.33127Z" fill="#22889B" stroke="#1E2457"/>
<path d="M8.57146 14.3313C9.51826 14.3313 10.2857 13.5637 10.2857 12.617C10.2857 11.6702 9.51826 10.9027 8.57146 10.9027C7.62466 10.9027 6.85718 11.6702 6.85718 12.617C6.85718 13.5637 7.62466 14.3313 8.57146 14.3313Z" stroke="white"/>
<path d="M16.5715 14.3313C17.5183 14.3313 18.2857 13.5637 18.2857 12.617C18.2857 11.6702 17.5183 10.9027 16.5715 10.9027C15.6247 10.9027 14.8572 11.6702 14.8572 12.617C14.8572 13.5637 15.6247 14.3313 16.5715 14.3313Z" stroke="white"/>
<path d="M14.8571 17.1884H9.71423C9.71423 17.7934 10.7428 18.9027 12.2857 18.9027C13.8285 18.9027 14.8571 17.8942 14.8571 17.1884Z" fill="white"/>
</svg>
