<svg width="25" height="24" viewBox="0 0 25 24" fill="none" xmlns="http://www.w3.org/2000/svg">
<mask id="path-1-inside-1_2444_577" fill="white">
<path fill-rule="evenodd" clip-rule="evenodd" d="M11.4662 6.16641L12.7462 4.88641C13.7766 3.85441 15.5862 3.13921 17.383 2.88161C18.1796 2.75659 18.9899 2.74582 19.7894 2.84961C20.4982 2.95521 20.9318 3.16321 21.1334 3.36641C21.3366 3.56801 21.5446 4.00161 21.6502 4.71041C21.7526 5.39361 21.7446 6.23041 21.6182 7.11681C21.3622 8.91361 20.6454 10.7232 19.6134 11.7536L12.4998 18.8688L10.6662 17.0352C10.592 16.9608 10.5038 16.9018 10.4067 16.8615C10.3096 16.8212 10.2055 16.8004 10.1004 16.8004C9.99528 16.8003 9.89118 16.8209 9.79403 16.8611C9.69689 16.9012 9.60861 16.9601 9.53423 17.0344C9.38401 17.1844 9.29953 17.388 9.29938 17.6002C9.29931 17.7054 9.31994 17.8095 9.3601 17.9066C9.40025 18.0037 9.45915 18.092 9.53343 18.1664L11.9334 20.5664C12.0077 20.6409 12.096 20.7 12.1932 20.7403C12.2904 20.7807 12.3946 20.8014 12.4998 20.8014C12.6051 20.8014 12.7092 20.7807 12.8064 20.7403C12.9036 20.7 12.9919 20.6409 13.0662 20.5664L13.9414 19.6896L15.8134 22.8112C15.8759 22.9157 15.9613 23.0046 16.0633 23.0711C16.1653 23.1376 16.2811 23.18 16.4019 23.1949C16.5227 23.2099 16.6454 23.1971 16.7605 23.1575C16.8756 23.1179 16.9802 23.0525 17.0662 22.9664L20.2662 19.7664C20.3541 19.6784 20.4202 19.5711 20.4594 19.4531C20.4986 19.335 20.5097 19.2095 20.4918 19.0864L19.7478 13.8832L20.7462 12.8864C22.1142 11.5168 22.919 9.32641 23.2022 7.34241C23.3462 6.33921 23.3622 5.34241 23.2326 4.47201C23.1046 3.62721 22.823 2.79201 22.2662 2.23361C21.7078 1.67681 20.8726 1.39361 20.0262 1.26721C19.0733 1.14104 18.1073 1.15181 17.1574 1.29921C15.1718 1.57921 12.9798 2.38401 11.6134 3.75201L10.6166 4.75041L5.41343 4.00641C5.29035 3.98857 5.1648 3.99967 5.04676 4.03883C4.92872 4.07799 4.82144 4.14413 4.73343 4.23201L1.53343 7.43201C1.4473 7.51805 1.38194 7.62262 1.34234 7.73774C1.30273 7.85287 1.28993 7.97551 1.3049 8.09633C1.31986 8.21715 1.36221 8.33297 1.42871 8.43495C1.49521 8.53692 1.5841 8.62238 1.68863 8.68481L4.80863 10.5568L3.93343 11.432C3.85893 11.5063 3.79982 11.5946 3.75949 11.6918C3.71916 11.789 3.6984 11.8932 3.6984 11.9984C3.6984 12.1036 3.71916 12.2078 3.75949 12.305C3.79982 12.4022 3.85893 12.4905 3.93343 12.5648L6.33343 14.9648C6.40781 15.0392 6.49611 15.0982 6.59329 15.1384C6.69048 15.1787 6.79464 15.1994 6.89983 15.1994C7.00502 15.1994 7.10918 15.1787 7.20636 15.1384C7.30354 15.0982 7.39185 15.0392 7.46623 14.9648C7.54061 14.8904 7.59961 14.8021 7.63987 14.7049C7.68012 14.6078 7.70084 14.5036 7.70084 14.3984C7.70084 14.2932 7.68012 14.1891 7.63987 14.0919C7.59961 13.9947 7.54061 13.9064 7.46623 13.832L5.63103 12L6.66623 10.9664L11.4662 6.16641ZM16.6582 21.1104L15.1062 18.5232L18.3334 15.2976L18.8518 18.9168L16.6582 21.1104ZM5.97663 9.39201L9.20223 6.16641L5.58303 5.64801L3.39103 7.84001L5.97663 9.39201ZM4.26463 16.5664C4.33901 16.4921 4.39803 16.4039 4.43833 16.3068C4.47862 16.2098 4.4994 16.1057 4.49947 16.0006C4.49955 15.8955 4.47892 15.7914 4.43876 15.6942C4.3986 15.5971 4.3397 15.5088 4.26543 15.4344C4.19115 15.36 4.10295 15.301 4.00587 15.2607C3.90878 15.2204 3.80471 15.1996 3.69959 15.1996C3.59448 15.1995 3.49038 15.2201 3.39323 15.2603C3.29609 15.3004 3.20781 15.3593 3.13343 15.4336L1.53343 17.0336C1.38342 17.1838 1.29923 17.3875 1.29938 17.5998C1.29953 17.8121 1.38401 18.0156 1.53423 18.1656C1.68445 18.3156 1.8881 18.3998 2.10039 18.3997C2.31268 18.3995 2.51622 18.315 2.66623 18.1648L4.26463 16.5664ZM6.66463 18.9664C6.74104 18.8926 6.80198 18.8043 6.84391 18.7067C6.88584 18.6091 6.90791 18.5042 6.90883 18.3979C6.90975 18.2917 6.88951 18.1864 6.84928 18.088C6.80906 17.9897 6.74966 17.9004 6.67454 17.8253C6.59943 17.7502 6.51011 17.6908 6.41179 17.6505C6.31347 17.6103 6.20813 17.5901 6.10191 17.591C5.99568 17.5919 5.89071 17.614 5.7931 17.6559C5.6955 17.6979 5.60722 17.7588 5.53343 17.8352L2.33343 21.0352C2.18342 21.1854 2.09923 21.3891 2.09938 21.6014C2.09953 21.8137 2.18401 22.0172 2.33423 22.1672C2.48445 22.3172 2.6881 22.4014 2.90039 22.4013C3.11268 22.4011 3.31622 22.3166 3.46623 22.1664L6.66463 18.9664ZM9.06463 21.3664C9.13901 21.2921 9.19803 21.2039 9.23833 21.1068C9.27862 21.0098 9.2994 20.9057 9.29947 20.8006C9.29955 20.6955 9.27892 20.5914 9.23876 20.4942C9.1986 20.3971 9.1397 20.3088 9.06543 20.2344C8.99115 20.16 8.90295 20.101 8.80587 20.0607C8.70878 20.0204 8.60471 19.9996 8.49959 19.9996C8.39448 19.9995 8.29038 20.0201 8.19323 20.0603C8.09609 20.1004 8.00781 20.1593 7.93343 20.2336L6.33343 21.8336C6.18342 21.9838 6.09923 22.1875 6.09938 22.3998C6.09953 22.6121 6.18401 22.8156 6.33423 22.9656C6.48445 23.1156 6.6881 23.1998 6.90039 23.1997C7.11268 23.1995 7.31622 23.115 7.46623 22.9648L9.06463 21.3664ZM15.6998 10.7984C15.9623 10.7984 16.2221 10.7467 16.4646 10.6463C16.707 10.5459 16.9273 10.3987 17.1129 10.2131C17.2985 10.0275 17.4457 9.80722 17.5461 9.56476C17.6465 9.3223 17.6982 9.06244 17.6982 8.80001C17.6982 8.53757 17.6465 8.27771 17.5461 8.03525C17.4457 7.7928 17.2985 7.57249 17.1129 7.38692C16.9273 7.20136 16.707 7.05416 16.4646 6.95373C16.2221 6.8533 15.9623 6.80161 15.6998 6.80161C15.1698 6.80161 14.6615 7.01215 14.2867 7.38692C13.912 7.7617 13.7014 8.27 13.7014 8.80001C13.7014 9.33002 13.912 9.83832 14.2867 10.2131C14.6615 10.5879 15.1698 10.7984 15.6998 10.7984Z"/>
</mask>
<path fill-rule="evenodd" clip-rule="evenodd" d="M11.4662 6.16641L12.7462 4.88641C13.7766 3.85441 15.5862 3.13921 17.383 2.88161C18.1796 2.75659 18.9899 2.74582 19.7894 2.84961C20.4982 2.95521 20.9318 3.16321 21.1334 3.36641C21.3366 3.56801 21.5446 4.00161 21.6502 4.71041C21.7526 5.39361 21.7446 6.23041 21.6182 7.11681C21.3622 8.91361 20.6454 10.7232 19.6134 11.7536L12.4998 18.8688L10.6662 17.0352C10.592 16.9608 10.5038 16.9018 10.4067 16.8615C10.3096 16.8212 10.2055 16.8004 10.1004 16.8004C9.99528 16.8003 9.89118 16.8209 9.79403 16.8611C9.69689 16.9012 9.60861 16.9601 9.53423 17.0344C9.38401 17.1844 9.29953 17.388 9.29938 17.6002C9.29931 17.7054 9.31994 17.8095 9.3601 17.9066C9.40025 18.0037 9.45915 18.092 9.53343 18.1664L11.9334 20.5664C12.0077 20.6409 12.096 20.7 12.1932 20.7403C12.2904 20.7807 12.3946 20.8014 12.4998 20.8014C12.6051 20.8014 12.7092 20.7807 12.8064 20.7403C12.9036 20.7 12.9919 20.6409 13.0662 20.5664L13.9414 19.6896L15.8134 22.8112C15.8759 22.9157 15.9613 23.0046 16.0633 23.0711C16.1653 23.1376 16.2811 23.18 16.4019 23.1949C16.5227 23.2099 16.6454 23.1971 16.7605 23.1575C16.8756 23.1179 16.9802 23.0525 17.0662 22.9664L20.2662 19.7664C20.3541 19.6784 20.4202 19.5711 20.4594 19.4531C20.4986 19.335 20.5097 19.2095 20.4918 19.0864L19.7478 13.8832L20.7462 12.8864C22.1142 11.5168 22.919 9.32641 23.2022 7.34241C23.3462 6.33921 23.3622 5.34241 23.2326 4.47201C23.1046 3.62721 22.823 2.79201 22.2662 2.23361C21.7078 1.67681 20.8726 1.39361 20.0262 1.26721C19.0733 1.14104 18.1073 1.15181 17.1574 1.29921C15.1718 1.57921 12.9798 2.38401 11.6134 3.75201L10.6166 4.75041L5.41343 4.00641C5.29035 3.98857 5.1648 3.99967 5.04676 4.03883C4.92872 4.07799 4.82144 4.14413 4.73343 4.23201L1.53343 7.43201C1.4473 7.51805 1.38194 7.62262 1.34234 7.73774C1.30273 7.85287 1.28993 7.97551 1.3049 8.09633C1.31986 8.21715 1.36221 8.33297 1.42871 8.43495C1.49521 8.53692 1.5841 8.62238 1.68863 8.68481L4.80863 10.5568L3.93343 11.432C3.85893 11.5063 3.79982 11.5946 3.75949 11.6918C3.71916 11.789 3.6984 11.8932 3.6984 11.9984C3.6984 12.1036 3.71916 12.2078 3.75949 12.305C3.79982 12.4022 3.85893 12.4905 3.93343 12.5648L6.33343 14.9648C6.40781 15.0392 6.49611 15.0982 6.59329 15.1384C6.69048 15.1787 6.79464 15.1994 6.89983 15.1994C7.00502 15.1994 7.10918 15.1787 7.20636 15.1384C7.30354 15.0982 7.39185 15.0392 7.46623 14.9648C7.54061 14.8904 7.59961 14.8021 7.63987 14.7049C7.68012 14.6078 7.70084 14.5036 7.70084 14.3984C7.70084 14.2932 7.68012 14.1891 7.63987 14.0919C7.59961 13.9947 7.54061 13.9064 7.46623 13.832L5.63103 12L6.66623 10.9664L11.4662 6.16641ZM16.6582 21.1104L15.1062 18.5232L18.3334 15.2976L18.8518 18.9168L16.6582 21.1104ZM5.97663 9.39201L9.20223 6.16641L5.58303 5.64801L3.39103 7.84001L5.97663 9.39201ZM4.26463 16.5664C4.33901 16.4921 4.39803 16.4039 4.43833 16.3068C4.47862 16.2098 4.4994 16.1057 4.49947 16.0006C4.49955 15.8955 4.47892 15.7914 4.43876 15.6942C4.3986 15.5971 4.3397 15.5088 4.26543 15.4344C4.19115 15.36 4.10295 15.301 4.00587 15.2607C3.90878 15.2204 3.80471 15.1996 3.69959 15.1996C3.59448 15.1995 3.49038 15.2201 3.39323 15.2603C3.29609 15.3004 3.20781 15.3593 3.13343 15.4336L1.53343 17.0336C1.38342 17.1838 1.29923 17.3875 1.29938 17.5998C1.29953 17.8121 1.38401 18.0156 1.53423 18.1656C1.68445 18.3156 1.8881 18.3998 2.10039 18.3997C2.31268 18.3995 2.51622 18.315 2.66623 18.1648L4.26463 16.5664ZM6.66463 18.9664C6.74104 18.8926 6.80198 18.8043 6.84391 18.7067C6.88584 18.6091 6.90791 18.5042 6.90883 18.3979C6.90975 18.2917 6.88951 18.1864 6.84928 18.088C6.80906 17.9897 6.74966 17.9004 6.67454 17.8253C6.59943 17.7502 6.51011 17.6908 6.41179 17.6505C6.31347 17.6103 6.20813 17.5901 6.10191 17.591C5.99568 17.5919 5.89071 17.614 5.7931 17.6559C5.6955 17.6979 5.60722 17.7588 5.53343 17.8352L2.33343 21.0352C2.18342 21.1854 2.09923 21.3891 2.09938 21.6014C2.09953 21.8137 2.18401 22.0172 2.33423 22.1672C2.48445 22.3172 2.6881 22.4014 2.90039 22.4013C3.11268 22.4011 3.31622 22.3166 3.46623 22.1664L6.66463 18.9664ZM9.06463 21.3664C9.13901 21.2921 9.19803 21.2039 9.23833 21.1068C9.27862 21.0098 9.2994 20.9057 9.29947 20.8006C9.29955 20.6955 9.27892 20.5914 9.23876 20.4942C9.1986 20.3971 9.1397 20.3088 9.06543 20.2344C8.99115 20.16 8.90295 20.101 8.80587 20.0607C8.70878 20.0204 8.60471 19.9996 8.49959 19.9996C8.39448 19.9995 8.29038 20.0201 8.19323 20.0603C8.09609 20.1004 8.00781 20.1593 7.93343 20.2336L6.33343 21.8336C6.18342 21.9838 6.09923 22.1875 6.09938 22.3998C6.09953 22.6121 6.18401 22.8156 6.33423 22.9656C6.48445 23.1156 6.6881 23.1998 6.90039 23.1997C7.11268 23.1995 7.31622 23.115 7.46623 22.9648L9.06463 21.3664ZM15.6998 10.7984C15.9623 10.7984 16.2221 10.7467 16.4646 10.6463C16.707 10.5459 16.9273 10.3987 17.1129 10.2131C17.2985 10.0275 17.4457 9.80722 17.5461 9.56476C17.6465 9.3223 17.6982 9.06244 17.6982 8.80001C17.6982 8.53757 17.6465 8.27771 17.5461 8.03525C17.4457 7.7928 17.2985 7.57249 17.1129 7.38692C16.9273 7.20136 16.707 7.05416 16.4646 6.95373C16.2221 6.8533 15.9623 6.80161 15.6998 6.80161C15.1698 6.80161 14.6615 7.01215 14.2867 7.38692C13.912 7.7617 13.7014 8.27 13.7014 8.80001C13.7014 9.33002 13.912 9.83832 14.2867 10.2131C14.6615 10.5879 15.1698 10.7984 15.6998 10.7984Z" fill="currentColor" stroke="currentColor" stroke-width="3" mask="url(#path-1-inside-1_2444_577)"/>
</svg>
